<svg xmlns="http://www.w3.org/2000/svg" viewBox="0 0 316.19 59.88"><defs><style>.cls-1{isolation:isolate;font-size:13.95px;fill:#fc0000;font-family:FORCED-SQUARE, FORCED SQUARE;letter-spacing:0.43em;}</style></defs><g id="Layer_2" data-name="Layer 2"><g id="svg7738"><g id="g10340-3-8-9-9-7-8-9-6"><text class="cls-1" transform="translate(67.27 57.48)"><tspan xml:space="preserve">s  t  u  d  i  o</tspan></text></g><rect id="rect851-9-6-6-3-5-3-6-7-3-8" x="206.97" y="33.2" width="30.7" height="6.2"/><g id="g3813-0-6-8"><path id="path566-5-6-7-8-8-7-4-6-6-9-2-0" d="M71.29.4V19.8L51.89.4Z"/><path id="path568-6-5-95-6-1-0-4-0-5-2-2-2" d="M51.89,39.4V20l19.4,19.4Z"/></g><rect id="rect4932-3-1-5-8-8-4-5-9-7-7-8-3-5-03-3-1-1-5-7-3-5-1-3-0-3-0-3-0-6-0-9-2-3-6-22-8" x="135.39" y="12.3" width="8.3" height="25.1"/><rect id="rect4932-3-1-5-8-8-4-5-9-7-7-8-3-5-03-3-1-1-5-7-3-5-1-3-0-3-8-4-8-1-1-8-5-2-2-0-7-3" x="135.39" y="0.4" width="8.3" height="8.3"/><rect id="rect4932-3-1-5-8-8-4-5-9-7-5-6-9-0-4-4-2-1-2-4-8-4-55-8-4-8-8-6-4-9-8-5-0" x="94.99" y="0.4" width="11.2" height="39.1"/><rect id="rect4932-3-1-5-8-8-4-5-9-7-7-8-3-5-0-1-9-1-8-0-5-3-6-5-96-4-1-8-1-7-0-4-2-5" x="81.19" y="14.2" width="39.1" height="11.2"/><g id="g13135-8-3-1-33-1-0-7-1-9-3-8-10-2"><path id="path12923-3-3-9-70-4-0-9-3-5-9-0-1-7" d="M22.5.37,0,39.47H8.6l14-24.3,14,24.3h8.6Z"/></g><rect id="rect4932-3-1-5-8-8-4-5-9-7-7-8-3-5-03-3-1-1-5-7-3-5-1-3-0-9-7-4-1-8-3-4-8-2-3-5-7-7" x="189.89" y="0.3" width="8.4" height="39"/><rect id="rect4932-3-1-5-8-8-4-5-9-7-7-8-3-5-03-3-1-1-5-7-3-5-1-3-0-9-4-58-0-1-7-58-9-9-1-1-6-9" x="159.19" y="0.3" width="8.4" height="39"/><rect id="rect4932-3-1-5-8-8-4-5-9-7-7-8-3-5-03-3-1-5-2-5-3-5-7-6-7-4-9-8-6-3-0-0-8-4-7-1-1-0-0" x="159.19" y="15.7" width="39" height="8.4"/><rect id="rect4932-3-1-5-8-8-4-5-9-7-7-8-3-5-03-3-7-0-5-9-1-6-3-9-0-1-3-4-9-8-6-5-9-3" x="246.99" y="10.1" width="19.5" height="8.3"/><rect id="rect4932-3-1-5-8-8-4-5-9-7-7-8-3-5-03-3-1-3-8-6-0-6-1-9-0-7-3-1-4-7-5-2-9-1-5-9" x="246.89" y="10.1" width="8.3" height="19.5"/><rect id="rect851-9-6-6-4-1-4-5-59-3" x="206.59" y="0.4" width="30.7" height="6.2"/><rect id="rect851-9-6-6-8-4-8-0-3-4-9" x="206.59" y="16.9" width="30.7" height="6.2"/><circle cx="296.19" cy="20" r="20"/></g></g></svg>